# xmcd CD database file
#
# Track frame offsets:
#	150
#	15375
#	33337
#	54300
#	70387
#	92062
#	110137
#	127275
#	145912
#	164175
#	182662
#	205425
#	227325
#	247500
#	265537
#
# Disc length: 3791 seconds
#
# Revision: 0
# Processed by: cddbd v1.5PL3 Copyright (c) Steve Scherf et al.
# Submitted via: CDex 1.51
#
DISCID=cf0ecd0f
DTITLE=いろいろ - NEW MUSIC BEST COLLECTION 9
DYEAR=1992
DGENRE=JPop
TTITLE0=玉置浩二 - キ・ツ・イ
TTITLE1=安全地帯 - Juliet
TTITLE2=安全地帯 - 微笑みに乾杯
TTITLE3=ヴァージンVS - 星空サイクリング
TTITLE4=来生たかお - 夢の途中
TTITLE5=来生たかお - セカンド ラブ
TTITLE6=小椋佳 - 揺れるまなざし
TTITLE7=小椋佳 - シクラメンのかほり
TTITLE8=H2O - 思い出がいっぱい
TTITLE9=H2O - Good-bye シーズン
TTITLE10=加藤登紀子 - 時代おくれの酒場
TTITLE11=来生たかお - マイ・ラグジュアリー・ナイト
TTITLE12=来生たかお - スローモーション
TTITLE13=玉置浩二 - I'm Dandy
TTITLE14=安全地帯 - ワインレッドの心
EXTD=YEAR: 1992
EXTT0=
EXTT1=
EXTT2=
EXTT3=
EXTT4=
EXTT5=
EXTT6=
EXTT7=
EXTT8=
EXTT9=
EXTT10=
EXTT11=
EXTT12=
EXTT13=
EXTT14=
PLAYORDER=
